REM DIRINDEX 1\2\6,1\2\4\7,1\2\4\8,1\2\5\9,1\3\12,1\3\10\13,1\3\10\14,1\3\10\15,1\3\11\16,1\3\11\17
REM DIRNAME folder01,folder02,folder03,folder04,folder05,folder06,folder07,folder08,folder09,folder10,folder11,folder12,folder13,folder14,folder15,folder16,folder17
TITLE ""
FILE "051.mp3" MP3
  TRACK 01 AUDIO
    TITLE "6:cjc048_01226"
    INDEX 01 00:00:00
  TRACK 02 AUDIO
    TITLE "9:cjc048_01227"
    INDEX 01 00:02:14
  TRACK 03 AUDIO
    TITLE "0:"
    INDEX 01 00:03:23
  TRACK 04 AUDIO
    TITLE "9:cjc048_01228"
    INDEX 01 00:04:03
  TRACK 05 AUDIO
    TITLE "0:"
    INDEX 01 00:05:30
  TRACK 06 AUDIO
    TITLE "9:cjc048_01229"
    INDEX 01 00:06:16
  TRACK 07 AUDIO
    TITLE "0:"
    INDEX 01 00:07:19
  TRACK 08 AUDIO
    TITLE "9:cjc048_01230"
    INDEX 01 00:08:05
  TRACK 09 AUDIO
    TITLE "0:"
    INDEX 01 00:09:30
  TRACK 10 AUDIO
    TITLE "9:cjc048_01231"
    INDEX 01 00:10:18
  TRACK 11 AUDIO
    TITLE "0:"
    INDEX 01 00:11:46
  TRACK 12 AUDIO
    TITLE "9:cjc048_01232"
    INDEX 01 00:12:30
  TRACK 13 AUDIO
    TITLE "0:"
    INDEX 01 00:13:47
  TRACK 14 AUDIO
    TITLE "9:cjc048_01233"
    INDEX 01 00:14:33
  TRACK 15 AUDIO
    TITLE "0:"
    INDEX 01 00:15:64
  TRACK 16 AUDIO
    TITLE "9:cjc048_01234"
    INDEX 01 00:16:51
  TRACK 17 AUDIO
    TITLE "0:"
    INDEX 01 00:17:57
  TRACK 18 AUDIO
    TITLE "9:cjc048_01235"
    INDEX 01 00:18:41
  TRACK 19 AUDIO
    TITLE "0:"
    INDEX 01 00:19:46
  TRACK 20 AUDIO
    TITLE "9:cjc048_01236"
    INDEX 01 00:20:30
  TRACK 21 AUDIO
    TITLE "0:"
    INDEX 01 00:21:41
  TRACK 22 AUDIO
    TITLE "9:cjc048_01237"
    INDEX 01 00:22:25
  TRACK 23 AUDIO
    TITLE "0:"
    INDEX 01 00:23:20
  TRACK 24 AUDIO
    TITLE "9:cjc048_01238"
    INDEX 01 00:24:06
  TRACK 25 AUDIO
    TITLE "0:"
    INDEX 01 00:25:29
  TRACK 26 AUDIO
    TITLE "9:cjc048_01239"
    INDEX 01 00:26:15
  TRACK 27 AUDIO
    TITLE "0:"
    INDEX 01 00:27:16
  TRACK 28 AUDIO
    TITLE "9:cjc048_01240"
    INDEX 01 00:28:00
  TRACK 29 AUDIO
    TITLE "0:"
    INDEX 01 00:29:44
  TRACK 30 AUDIO
    TITLE "9:cjc048_01241"
    INDEX 01 00:30:30
  TRACK 31 AUDIO
    TITLE "0:"
    INDEX 01 00:31:53
  TRACK 32 AUDIO
    TITLE "9:cjc048_01242"
    INDEX 01 00:32:39
  TRACK 33 AUDIO
    TITLE "0:"
    INDEX 01 00:33:52
  TRACK 34 AUDIO
    TITLE "9:cjc048_01243"
    INDEX 01 00:34:38
  TRACK 35 AUDIO
    TITLE "0:"
    INDEX 01 00:35:45
  TRACK 36 AUDIO
    TITLE "9:cjc048_01244"
    INDEX 01 00:36:31
  TRACK 37 AUDIO
    TITLE "0:"
    INDEX 01 00:37:65
  TRACK 38 AUDIO
    TITLE "9:cjc048_01245"
    INDEX 01 00:38:51
  TRACK 39 AUDIO
    TITLE "0:"
    INDEX 01 00:39:64
  TRACK 40 AUDIO
    TITLE "9:cjc048_01246"
    INDEX 01 00:40:48
  TRACK 41 AUDIO
    TITLE "0:"
    INDEX 01 00:41:53
  TRACK 42 AUDIO
    TITLE "9:cjc048_01247"
    INDEX 01 00:42:39
  TRACK 43 AUDIO
    TITLE "0:"
    INDEX 01 00:43:44
  TRACK 44 AUDIO
    TITLE "9:cjc048_01248"
    INDEX 01 00:44:32
  TRACK 45 AUDIO
    TITLE "0:"
    INDEX 01 00:45:47
  TRACK 46 AUDIO
    TITLE "9:cjc048_01249"
    INDEX 01 00:46:35
  TRACK 47 AUDIO
    TITLE "0:"
    INDEX 01 00:47:54
  TRACK 48 AUDIO
    TITLE "9:cjc048_01250"
    INDEX 01 00:48:38
  TRACK 49 AUDIO
    TITLE "0:"
    INDEX 01 00:49:37
  TRACK 50 AUDIO
    TITLE "9:cjc048_01251"
    INDEX 01 00:50:23
  TRACK 51 AUDIO
    TITLE "0:"
    INDEX 01 00:51:48
  TRACK 52 AUDIO
    TITLE "9:cjc048_01252"
    INDEX 01 00:52:36
  TRACK 53 AUDIO
    TITLE "0:"
    INDEX 01 00:53:47
  TRACK 54 AUDIO
    TITLE "9:cjc048_01253"
    INDEX 01 00:54:30
  TRACK 55 AUDIO
    TITLE "0:"
    INDEX 01 00:55:57
  TRACK 56 AUDIO
    TITLE "9:cjc048_01254"
    INDEX 01 00:56:41
  TRACK 57 AUDIO
    TITLE "0:"
    INDEX 01 00:58:05
  TRACK 58 AUDIO
    TITLE "9:cjc048_01255"
    INDEX 01 00:58:66
  TRACK 59 AUDIO
    TITLE "0:"
    INDEX 01 00:59:71
  TRACK 60 AUDIO
    TITLE "9:cjc048_01256"
    INDEX 01 01:00:59
  TRACK 61 AUDIO
    TITLE "0:"
    INDEX 01 01:01:68
  TRACK 62 AUDIO
    TITLE "9:cjc048_01257"
    INDEX 01 01:02:54
  TRACK 63 AUDIO
    TITLE "0:"
    INDEX 01 01:03:57
  TRACK 64 AUDIO
    TITLE "9:cjc048_01258"
    INDEX 01 01:04:43
  TRACK 65 AUDIO
    TITLE "0:"
    INDEX 01 01:05:71
  TRACK 66 AUDIO
    TITLE "9:cjc048_01259"
    INDEX 01 01:06:57
  TRACK 67 AUDIO
    TITLE "0:"
    INDEX 01 01:08:46
  TRACK 68 AUDIO
    TITLE "9:cjc048_01260"
    INDEX 01 01:09:30
  TRACK 69 AUDIO
    TITLE "0:"
    INDEX 01 01:10:57
  TRACK 70 AUDIO
    TITLE "9:cjc048_01261"
    INDEX 01 01:11:41
  TRACK 71 AUDIO
    TITLE "0:"
    INDEX 01 01:13:18
  TRACK 72 AUDIO
    TITLE "9:cjc048_01262"
    INDEX 01 01:14:04
  TRACK 73 AUDIO
    TITLE "0:"
    INDEX 01 01:15:40
  TRACK 74 AUDIO
    TITLE "9:cjc048_01263"
    INDEX 01 01:16:26
  TRACK 75 AUDIO
    TITLE "0:"
    INDEX 01 01:17:71
  TRACK 76 AUDIO
    TITLE "9:cjc048_01264"
    INDEX 01 01:18:56
  TRACK 77 AUDIO
    TITLE "0:"
    INDEX 01 01:20:40
  TRACK 78 AUDIO
    TITLE "9:cjc048_01265"
    INDEX 01 01:21:25
  TRACK 79 AUDIO
    TITLE "0:"
    INDEX 01 01:22:52
  TRACK 80 AUDIO
    TITLE "9:cjc048_01266"
    INDEX 01 01:23:36
  TRACK 81 AUDIO
    TITLE "0:"
    INDEX 01 01:24:47
  TRACK 82 AUDIO
    TITLE "9:cjc048_01267"
    INDEX 01 01:25:31
  TRACK 83 AUDIO
    TITLE "0:"
    INDEX 01 01:26:54
  TRACK 84 AUDIO
    TITLE "9:cjc048_01268"
    INDEX 01 01:27:38
  TRACK 85 AUDIO
    TITLE "0:"
    INDEX 01 01:29:39
  TRACK 86 AUDIO
    TITLE "9:cjc048_01269"
    INDEX 01 01:30:22
  TRACK 87 AUDIO
    TITLE "0:"
    INDEX 01 01:31:38
  TRACK 88 AUDIO
    TITLE "9:cjc048_01270"
    INDEX 01 01:32:23
  TRACK 89 AUDIO
    TITLE "0:"
    INDEX 01 01:33:58
  TRACK 90 AUDIO
    TITLE "9:cjc048_01271"
    INDEX 01 01:34:44
  TRACK 91 AUDIO
    TITLE "0:"
    INDEX 01 01:35:53
  TRACK 92 AUDIO
    TITLE "9:cjc048_01272"
    INDEX 01 01:36:41
  TRACK 93 AUDIO
    TITLE "0:"
    INDEX 01 01:37:64
  TRACK 94 AUDIO
    TITLE "9:cjc048_01273"
    INDEX 01 01:38:47
  TRACK 95 AUDIO
    TITLE "0:"
    INDEX 01 01:39:74
